<svg width="1474" height="684" viewBox="0 0 1474 684" fill="none" xmlns="http://www.w3.org/2000/svg">
<g clip-path="url(#clip0_8_734)">
<rect width="1474" height="684" rx="100" transform="matrix(-1 0 0 1 1474 0)" fill="url(#paint0_linear_8_734)"/>
<g opacity="0.1" filter="url(#filter0_d_8_734)">
<path d="M180.712 835.423C362.254 835.423 509.419 688.254 509.419 506.711C509.419 325.169 362.254 178 180.712 178C-0.830302 178 -148 325.169 -148 506.711C-148 688.254 -0.830302 835.423 180.712 835.423Z" stroke="#454545" stroke-width="1.75646" stroke-miterlimit="10"/>
<path d="M322.547 228.152C332.542 228.152 340.645 220.049 340.645 210.053C340.645 200.058 332.542 191.956 322.547 191.956C312.553 191.956 304.45 200.058 304.45 210.053C304.45 220.049 312.553 228.152 322.547 228.152Z" fill="#FDCF30"/>
<path d="M509.419 530.808C515.816 530.808 521.004 525.625 521.004 519.23C521.004 512.836 515.816 507.652 509.419 507.652C503.031 507.652 497.844 512.836 497.844 519.23C497.844 525.625 503.031 530.808 509.419 530.808Z" fill="#5661AE"/>
<path d="M188.327 754.086C323.753 754.086 433.537 644.302 433.537 508.877C433.537 373.45 323.753 263.666 188.327 263.666C52.9005 263.666 -56.8834 373.45 -56.8834 508.877C-56.8834 644.302 52.9005 754.086 188.327 754.086Z" stroke="#454545" stroke-width="1.31028" stroke-miterlimit="10"/>
<path d="M429.334 566.907C434.103 566.907 437.97 563.04 437.97 558.27C437.97 553.5 434.103 549.633 429.334 549.633C424.563 549.633 420.696 553.5 420.696 558.27C420.696 563.04 424.563 566.907 429.334 566.907Z" fill="#FEBB94"/>
<path d="M78.4892 298.048C83.2595 298.048 87.1262 294.181 87.1262 289.411C87.1262 284.641 83.2595 280.775 78.4892 280.775C73.7197 280.775 69.853 284.641 69.853 289.411C69.853 294.181 73.7197 298.048 78.4892 298.048Z" fill="#FDCF30"/>
</g>
<path d="M1258 149H1170C1168.67 149 1167.4 148.473 1166.46 147.536C1165.53 146.598 1165 145.326 1165 144C1165 142.674 1165.53 141.402 1166.46 140.464C1167.4 139.527 1168.67 139 1170 139H1258C1259.33 139 1260.6 139.527 1261.54 140.464C1262.47 141.402 1263 142.674 1263 144C1263 145.326 1262.47 146.598 1261.54 147.536C1260.6 148.473 1259.33 149 1258 149V149Z" fill="#ECECEC"/>
<path d="M1326 184H1170C1168.67 184 1167.4 183.473 1166.46 182.536C1165.53 181.598 1165 180.326 1165 179C1165 177.674 1165.53 176.402 1166.46 175.464C1167.4 174.527 1168.67 174 1170 174H1326C1327.33 174 1328.6 174.527 1329.54 175.464C1330.47 176.402 1331 177.674 1331 179C1331 180.326 1330.47 181.598 1329.54 182.536C1328.6 183.473 1327.33 184 1326 184Z" fill="#ECECEC"/>
<path d="M1287 219H1170C1168.67 219 1167.4 218.473 1166.46 217.536C1165.53 216.598 1165 215.326 1165 214C1165 212.674 1165.53 211.402 1166.46 210.464C1167.4 209.527 1168.67 209 1170 209H1287C1288.33 209 1289.6 209.527 1290.54 210.464C1291.47 211.402 1292 212.674 1292 214C1292 215.326 1291.47 216.598 1290.54 217.536C1289.6 218.473 1288.33 219 1287 219Z" fill="#ECECEC"/>
<path d="M1326 254H1170C1168.67 254 1167.4 253.473 1166.46 252.536C1165.53 251.598 1165 250.326 1165 249C1165 247.674 1165.53 246.402 1166.46 245.464C1167.4 244.527 1168.67 244 1170 244H1326C1327.33 244 1328.6 244.527 1329.54 245.464C1330.47 246.402 1331 247.674 1331 249C1331 250.326 1330.47 251.598 1329.54 252.536C1328.6 253.473 1327.33 254 1326 254V254Z" fill="#ECECEC"/>
<path d="M966.304 284.016C1015.72 284.016 1055.77 243.958 1055.77 194.545C1055.77 145.133 1015.72 105.075 966.304 105.075C916.891 105.075 876.834 145.133 876.834 194.545C876.834 243.958 916.891 284.016 966.304 284.016Z" fill="#FFC431"/>
<path d="M971.304 110.124H961.304V100.124H971.304V110.124ZM963.304 108.124H969.304V102.124H963.304V108.124Z" fill="#454545"/>
<path d="M1022.54 104.124H969.539V106.124H1022.54V104.124Z" fill="#454545"/>
<path d="M1022.54 107.207C1023.69 107.207 1024.62 106.275 1024.62 105.124C1024.62 103.974 1023.69 103.042 1022.54 103.042C1021.39 103.042 1020.46 103.974 1020.46 105.124C1020.46 106.275 1021.39 107.207 1022.54 107.207Z" fill="#454545"/>
<path d="M962.539 104.124H910.539V106.124H962.539V104.124Z" fill="#454545"/>
<path d="M910.539 107.207C911.689 107.207 912.622 106.275 912.622 105.124C912.622 103.974 911.689 103.042 910.539 103.042C909.389 103.042 908.456 103.974 908.456 105.124C908.456 106.275 909.389 107.207 910.539 107.207Z" fill="#454545"/>
<path d="M1060.54 199.31H1050.54V189.31H1060.54V199.31ZM1052.54 197.31H1058.54V191.31H1052.54V197.31Z" fill="#454545"/>
<path d="M1056.54 198.545H1054.54V250.545H1056.54V198.545Z" fill="#454545"/>
<path d="M1055.54 252.628C1056.69 252.628 1057.62 251.696 1057.62 250.545C1057.62 249.395 1056.69 248.463 1055.54 248.463C1054.39 248.463 1053.46 249.395 1053.46 250.545C1053.46 251.696 1054.39 252.628 1055.54 252.628Z" fill="#454545"/>
<path d="M1056.54 138.545H1054.54V190.545H1056.54V138.545Z" fill="#454545"/>
<path d="M1055.54 140.628C1056.69 140.628 1057.62 139.696 1057.62 138.545C1057.62 137.395 1056.69 136.463 1055.54 136.463C1054.39 136.463 1053.46 137.395 1053.46 138.545C1053.46 139.696 1054.39 140.628 1055.54 140.628Z" fill="#454545"/>
<path d="M881.539 199.31H871.539V189.31H881.539V199.31ZM873.539 197.31H879.539V191.31H873.539V197.31Z" fill="#454545"/>
<path d="M877.539 198.545H875.539V250.545H877.539V198.545Z" fill="#454545"/>
<path d="M876.539 252.628C877.689 252.628 878.622 251.696 878.622 250.545C878.622 249.395 877.689 248.463 876.539 248.463C875.389 248.463 874.456 249.395 874.456 250.545C874.456 251.696 875.389 252.628 876.539 252.628Z" fill="#454545"/>
<path d="M877.539 136.545H875.539V190.545H877.539V136.545Z" fill="#454545"/>
<path d="M876.539 140.628C877.689 140.628 878.622 139.696 878.622 138.545C878.622 137.395 877.689 136.463 876.539 136.463C875.389 136.463 874.456 137.395 874.456 138.545C874.456 139.696 875.389 140.628 876.539 140.628Z" fill="#454545"/>
<path d="M971.304 289.124H961.304V279.124H971.304V289.124ZM963.304 287.124H969.304V281.124H963.304V287.124Z" fill="#454545"/>
<path d="M1023.54 283.124H970.539V285.124H1023.54V283.124Z" fill="#454545"/>
<path d="M1022.54 286.207C1023.69 286.207 1024.62 285.275 1024.62 284.124C1024.62 282.974 1023.69 282.042 1022.54 282.042C1021.39 282.042 1020.46 282.974 1020.46 284.124C1020.46 285.275 1021.39 286.207 1022.54 286.207Z" fill="#454545"/>
<path d="M962.539 283.124H910.539V285.124H962.539V283.124Z" fill="#454545"/>
<path d="M910.539 286.207C911.689 286.207 912.622 285.275 912.622 284.124C912.622 282.974 911.689 282.042 910.539 282.042C909.389 282.042 908.456 282.974 908.456 284.124C908.456 285.275 909.389 286.207 910.539 286.207Z" fill="#454545"/>
<path d="M1379 359H834C829.493 358.995 825.172 357.202 821.985 354.015C818.798 350.828 817.005 346.507 817 342V71C817.005 66.4929 818.798 62.1718 821.985 58.9848C825.172 55.7977 829.493 54.0051 834 54H1379C1383.51 54.0051 1387.83 55.7978 1391.02 58.9848C1394.2 62.1718 1395.99 66.4929 1396 71V342C1395.99 346.507 1394.2 350.828 1391.02 354.015C1387.83 357.202 1383.51 358.995 1379 359V359ZM834 56C830.023 56.0045 826.21 57.5863 823.398 60.3984C820.586 63.2104 819.004 67.0231 819 71V342C819.004 345.977 820.586 349.79 823.398 352.602C826.21 355.414 830.023 356.996 834 357H1379C1382.98 356.996 1386.79 355.414 1389.6 352.602C1392.41 349.79 1394 345.977 1394 342V71C1394 67.0231 1392.41 63.2104 1389.6 60.3984C1386.79 57.5863 1382.98 56.0045 1379 56H834Z" fill="#454545"/>
<path d="M1147 149C1149.76 149 1152 146.761 1152 144C1152 141.239 1149.76 139 1147 139C1144.24 139 1142 141.239 1142 144C1142 146.761 1144.24 149 1147 149Z" fill="#ECECEC"/>
<path d="M1147 184C1149.76 184 1152 181.761 1152 179C1152 176.239 1149.76 174 1147 174C1144.24 174 1142 176.239 1142 179C1142 181.761 1144.24 184 1147 184Z" fill="#ECECEC"/>
<path d="M1147 219C1149.76 219 1152 216.761 1152 214C1152 211.239 1149.76 209 1147 209C1144.24 209 1142 211.239 1142 214C1142 216.761 1144.24 219 1147 219Z" fill="#ECECEC"/>
<path d="M1147 254C1149.76 254 1152 251.761 1152 249C1152 246.239 1149.76 244 1147 244C1144.24 244 1142 246.239 1142 249C1142 251.761 1144.24 254 1147 254Z" fill="#ECECEC"/>
<path d="M1230.38 611.017L1226.99 611.847C1228.52 612.067 1230.05 612.277 1231.58 612.467H1288.12C1292.36 611.927 1296.58 611.26 1300.77 610.467C1326.03 605.809 1350.14 596.26 1371.73 582.357C1385 573.727 1397.65 563.117 1404.52 548.867C1413.85 529.517 1410.59 505.017 1397.27 488.167C1392.42 482.087 1386.45 476.995 1379.68 473.167C1378.67 472.587 1377.65 472.037 1376.61 471.517C1365.34 465.85 1352.68 463.532 1340.12 464.837C1318.77 467.167 1299.07 480.207 1287.7 498.427C1275.13 518.547 1272.72 543.167 1270.62 566.797C1266.81 554.537 1252.51 547.047 1239.96 549.757C1227.42 552.457 1217.74 564.167 1216.18 576.907C1214.65 589.367 1220.31 602.157 1229.74 610.467C1229.95 610.647 1230.16 610.837 1230.38 611.017Z" fill="#ECECEC"/>
<path d="M1273.98 612.467H1276.81C1277.09 612.243 1277.31 611.95 1277.44 611.617C1277.6 611.237 1277.75 610.847 1277.92 610.467C1299.83 557.506 1334.57 510.829 1379.01 474.647C1379.25 474.481 1379.43 474.257 1379.55 473.997C1379.67 473.737 1379.71 473.451 1379.68 473.167C1379.63 472.788 1379.47 472.431 1379.23 472.131C1378.99 471.832 1378.68 471.602 1378.32 471.463C1377.96 471.324 1377.58 471.281 1377.2 471.34C1376.82 471.399 1376.46 471.556 1376.16 471.797C1358.55 486.146 1342.38 502.197 1327.91 519.717C1305.28 547.016 1286.96 577.621 1273.58 610.467C1273.57 610.497 1273.56 610.517 1273.55 610.547C1273.39 610.867 1273.35 611.233 1273.43 611.583C1273.51 611.933 1273.7 612.245 1273.98 612.467Z" fill="#E7DDE9"/>
<path d="M1174.85 390.501C1174.86 387.483 1176.06 384.589 1178.19 382.455C1180.32 380.32 1183.22 379.12 1186.24 379.116C1186.35 379.116 1186.46 379.122 1186.56 379.129L1221.77 351.064L1196.54 325.833C1195.5 324.8 1194.68 323.573 1194.12 322.222C1193.56 320.871 1193.27 319.422 1193.27 317.959C1193.27 316.496 1193.55 315.046 1194.11 313.694C1194.67 312.342 1195.49 311.113 1196.53 310.079C1197.56 309.044 1198.79 308.224 1200.14 307.664C1201.49 307.105 1202.94 306.818 1204.41 306.819C1205.87 306.82 1207.32 307.11 1208.67 307.672C1210.02 308.234 1211.25 309.057 1212.28 310.094L1252.84 350.649L1197.62 390.808C1197.54 393.8 1196.28 396.64 1194.12 398.713C1191.96 400.786 1189.08 401.926 1186.08 401.886C1183.09 401.846 1180.23 400.628 1178.13 398.498C1176.03 396.367 1174.85 393.494 1174.85 390.501V390.501Z" fill="#FFB8B8"/>
<path d="M1133.52 598.516L1121.62 594.071L1133.1 546.028L1150.67 552.589L1133.52 598.516Z" fill="#FFB8B8"/>
<path d="M1113.87 587.303L1137.34 596.067L1131.95 610.525L1094.52 596.555L1094.72 596.043C1096.1 592.344 1098.89 589.345 1102.48 587.706C1106.07 586.067 1110.17 585.922 1113.87 587.303V587.303Z" fill="#454545"/>
<path d="M1240.64 598.696H1227.93L1221.89 549.672L1240.65 549.673L1240.64 598.696Z" fill="#FFB8B8"/>
<path d="M1218.31 595.064H1243.37V610.497H1203.42V609.951C1203.42 607.996 1203.81 606.06 1204.56 604.254C1205.3 602.448 1206.4 600.807 1207.78 599.424C1209.17 598.042 1210.81 596.945 1212.61 596.197C1214.42 595.449 1216.36 595.064 1218.31 595.064V595.064Z" fill="#454545"/>
<path d="M1223.81 580.058C1223.34 579.607 1222.97 579.059 1222.74 578.454C1222.5 577.848 1222.4 577.198 1222.44 576.55C1224.71 539.109 1204.98 471.055 1198.88 451.088C1198.71 450.532 1198.41 450.026 1197.99 449.619C1197.58 449.211 1197.07 448.916 1196.51 448.761C1195.94 448.598 1195.34 448.581 1194.76 448.711C1194.18 448.841 1193.64 449.115 1193.19 449.507C1160.23 478.219 1150.4 559.223 1148.76 575.169C1148.7 575.765 1148.52 576.343 1148.23 576.868C1147.94 577.393 1147.55 577.855 1147.08 578.228C1146.61 578.6 1146.08 578.875 1145.5 579.037C1144.92 579.198 1144.32 579.242 1143.73 579.167L1127.27 577.111C1126.65 577.034 1126.06 576.828 1125.52 576.507C1124.99 576.187 1124.52 575.758 1124.16 575.249C1123.8 574.739 1123.55 574.16 1123.42 573.548C1123.3 572.936 1123.3 572.305 1123.43 571.695L1166.57 372.254L1166.6 372.134L1166.67 372.039C1177.11 359.521 1207.33 364.395 1208.61 364.609L1208.74 364.631L1208.85 364.717C1247.66 396.901 1245.69 546.083 1244.9 575.662C1244.87 576.759 1244.44 577.808 1243.69 578.609C1242.94 579.411 1241.92 579.911 1240.83 580.015L1227.36 581.298C1227.21 581.312 1227.07 581.318 1226.93 581.318C1225.76 581.319 1224.64 580.867 1223.81 580.058V580.058Z" fill="#454545"/>
<path d="M1201 284.315C1214.56 284.315 1225.56 273.318 1225.56 259.754C1225.56 246.189 1214.56 235.193 1201 235.193C1187.43 235.193 1176.44 246.189 1176.44 259.754C1176.44 273.318 1187.43 284.315 1201 284.315Z" fill="#FFB8B8"/>
<path d="M1225.11 306.01C1225.11 306.01 1202.31 279.055 1183.65 300.826C1171.64 314.834 1165.29 332.817 1165.84 351.258L1166.54 374.951L1209.56 368.212L1225.11 306.01Z" fill="#FFC431"/>
<path d="M1197.02 264.003L1186.46 251.571C1183.74 248.367 1180.9 244.878 1180.52 240.693C1180.09 236.106 1182.88 231.647 1186.7 229.064C1190.51 226.482 1195.2 225.51 1199.79 225.153C1208.31 224.492 1217.27 225.899 1224.27 230.795C1231.28 235.69 1235.86 244.527 1234.15 252.899C1232.81 259.49 1227.85 265.805 1229.78 272.251C1231.88 279.304 1240.52 281.468 1247.58 283.571C1259.42 287.101 1270.72 294.051 1276.93 304.735C1283.14 315.42 1283.11 330.152 1274.84 339.33C1269.48 345.273 1261.4 348.279 1253.41 348.731C1245.43 349.183 1237.48 347.302 1229.9 344.729C1222.92 342.359 1216.02 339.311 1210.53 334.399C1205.04 329.488 1201.08 322.46 1201.25 315.094C1201.42 308.074 1205.18 301.679 1206.72 294.83C1207.94 289.094 1207.62 283.138 1205.79 277.566C1203.97 271.993 1200.7 267.003 1196.33 263.1" fill="#454545"/>
<path d="M1170.94 485.802H1140.4C1139.4 485.8 1138.45 485.404 1137.74 484.699C1137.04 483.994 1136.64 483.038 1136.64 482.041V446.005C1136.64 445.008 1137.04 444.052 1137.74 443.347C1138.45 442.642 1139.4 442.246 1140.4 442.245H1170.94C1171.93 442.246 1172.89 442.642 1173.59 443.347C1174.3 444.052 1174.7 445.008 1174.7 446.005V482.041C1174.7 483.038 1174.3 483.994 1173.59 484.699C1172.89 485.404 1171.93 485.8 1170.94 485.802V485.802Z" fill="#FFC431"/>
<path d="M1161.89 454.979C1160.43 452.706 1159.85 449.981 1160.25 447.311C1160.66 444.642 1162.02 442.212 1164.09 440.474L1180.8 308.78C1181.17 305.967 1182.54 303.381 1184.67 301.506C1186.79 299.63 1189.53 298.593 1192.37 298.588L1192.53 298.589C1194.22 298.611 1195.89 299.002 1197.41 299.735C1198.94 300.467 1200.29 301.524 1201.37 302.831C1202.45 304.138 1203.23 305.664 1203.65 307.303C1204.08 308.942 1204.15 310.655 1203.85 312.322L1180.34 442.383L1180.35 442.39C1181.33 443.729 1182 445.271 1182.31 446.903C1182.63 448.535 1182.57 450.216 1182.15 451.823C1181.73 453.43 1180.95 454.924 1179.88 456.194C1178.81 457.464 1177.47 458.48 1175.96 459.167C1174.54 459.812 1172.99 460.144 1171.43 460.14C1169.54 460.148 1167.67 459.68 1166 458.778C1164.33 457.876 1162.92 456.57 1161.89 454.979Z" fill="#FFB8B8"/>
<path d="M1328 612.467H1071C1070.73 612.467 1070.48 612.361 1070.29 612.174C1070.11 611.986 1070 611.732 1070 611.467C1070 611.202 1070.11 610.947 1070.29 610.76C1070.48 610.572 1070.73 610.467 1071 610.467H1328C1328.27 610.467 1328.52 610.572 1328.71 610.76C1328.89 610.947 1329 611.202 1329 611.467C1329 611.732 1328.89 611.986 1328.71 612.174C1328.52 612.361 1328.27 612.467 1328 612.467Z" fill="#454545"/>
</g>
<defs>
<filter id="filter0_d_8_734" x="-160.15" y="171.486" width="692.426" height="692.422" filterUnits="userSpaceOnUse" color-interpolation-filters="sRGB">
<feFlood flood-opacity="0" result="BackgroundImageFix"/>
<feColorMatrix in="SourceAlpha" type="matrix" values="0 0 0 0 0 0 0 0 0 0 0 0 0 0 0 0 0 0 127 0" result="hardAlpha"/>
<feOffset dy="5.63591"/>
<feGaussianBlur stdDeviation="5.63591"/>
<feColorMatrix type="matrix" values="0 0 0 0 0 0 0 0 0 0 0 0 0 0 0 0 0 0 0.2 0"/>
<feBlend mode="normal" in2="BackgroundImageFix" result="effect1_dropShadow_8_734"/>
<feBlend mode="normal" in="SourceGraphic" in2="effect1_dropShadow_8_734" result="shape"/>
</filter>
<linearGradient id="paint0_linear_8_734" x1="0" y1="342" x2="1474" y2="342" gradientUnits="userSpaceOnUse">
<stop stop-color="#FDCBF1"/>
<stop offset="0.01" stop-color="#FDCBF1"/>
<stop offset="1" stop-color="#E6DEE9"/>
</linearGradient>
<clipPath id="clip0_8_734">
<rect width="1474" height="684" rx="100" fill="white"/>
</clipPath>
</defs>
</svg>
