<svg width="207" height="66" viewBox="0 0 207 66" fill="none" xmlns="http://www.w3.org/2000/svg">
<rect width="207" height="66" fill="#D8D8D8"/>
<mask id="mask0_5_9" style="mask-type:alpha" maskUnits="userSpaceOnUse" x="0" y="0" width="207" height="66">
<rect width="207" height="66" fill="white"/>
</mask>
<g mask="url(#mask0_5_9)">
<rect width="207" height="66" fill="#FDCF30"/>
</g>
<path d="M41.7388 39V24.8H53.2388V39H50.4987V27.22H44.4788V39H41.7388ZM62.25 39.2C61.4233 39.2 60.7033 39.0133 60.09 38.64C59.4767 38.2667 58.9967 37.7733 58.65 37.16V43.26H55.97V28.52H58.31V30.32C58.6967 29.7067 59.1967 29.2267 59.81 28.88C60.4367 28.52 61.1433 28.34 61.93 28.34C62.8767 28.34 63.7167 28.5867 64.45 29.08C65.1833 29.56 65.7633 30.2133 66.19 31.04C66.6167 31.8533 66.83 32.7533 66.83 33.74C66.83 34.7667 66.63 35.6933 66.23 36.52C65.8433 37.3333 65.3033 37.9867 64.61 38.48C63.93 38.96 63.1433 39.2 62.25 39.2ZM61.35 36.92C61.8967 36.92 62.37 36.7733 62.77 36.48C63.1833 36.1733 63.5033 35.78 63.73 35.3C63.97 34.8067 64.09 34.2867 64.09 33.74C64.09 33.1533 63.9633 32.6267 63.71 32.16C63.4567 31.68 63.11 31.3067 62.67 31.04C62.2433 30.76 61.75 30.62 61.19 30.62C60.6833 30.62 60.1767 30.7867 59.67 31.12C59.1633 31.4533 58.8233 31.8733 58.65 32.38V34.84C58.89 35.4267 59.2567 35.92 59.75 36.32C60.2433 36.72 60.7767 36.92 61.35 36.92ZM73.4858 39.2C72.3391 39.2 71.3524 38.9533 70.5258 38.46C69.7124 37.9533 69.0858 37.2867 68.6458 36.46C68.2058 35.6333 67.9858 34.74 67.9858 33.78C67.9858 32.8067 68.2058 31.9067 68.6458 31.08C69.0991 30.2533 69.7324 29.5933 70.5458 29.1C71.3724 28.5933 72.3524 28.34 73.4858 28.34C74.6191 28.34 75.5924 28.5933 76.4058 29.1C77.2324 29.5933 77.8658 30.2533 78.3058 31.08C78.7458 31.9067 78.9658 32.8067 78.9658 33.78C78.9658 34.74 78.7458 35.6333 78.3058 36.46C77.8658 37.2867 77.2324 37.9533 76.4058 38.46C75.5924 38.9533 74.6191 39.2 73.4858 39.2ZM70.7458 33.78C70.7458 34.3933 70.8658 34.94 71.1058 35.42C71.3458 35.8867 71.6724 36.2533 72.0858 36.52C72.4991 36.7867 72.9658 36.92 73.4858 36.92C73.9924 36.92 74.4524 36.7867 74.8658 36.52C75.2791 36.24 75.6058 35.8667 75.8458 35.4C76.0991 34.92 76.2258 34.3733 76.2258 33.76C76.2258 33.16 76.0991 32.6267 75.8458 32.16C75.6058 31.68 75.2791 31.3067 74.8658 31.04C74.4524 30.76 73.9924 30.62 73.4858 30.62C72.9658 30.62 72.4991 30.76 72.0858 31.04C71.6724 31.3067 71.3458 31.68 71.1058 32.16C70.8658 32.6267 70.7458 33.1667 70.7458 33.78ZM80.7747 39V28.54H83.4547V35.42L88.1547 28.52H90.5947V39H87.9147V32.28L83.2747 39H80.7747ZM85.6947 27.54C84.668 27.54 83.8614 27.28 83.2747 26.76C82.688 26.2267 82.3947 25.5467 82.3947 24.72H84.0547C84.0547 25.12 84.1814 25.4533 84.4347 25.72C84.7014 25.9867 85.1214 26.12 85.6947 26.12C86.2547 26.12 86.6547 25.9933 86.8947 25.74C87.148 25.4867 87.3014 25.1467 87.3547 24.72H89.0147C89.0147 25.5467 88.7214 26.2267 88.1347 26.76C87.548 27.28 86.7347 27.54 85.6947 27.54ZM95.4603 39V30.86H92.1403V28.52H101.48V30.86H98.1403V39H95.4603ZM102.982 39V28.54H105.662V35.42L110.362 28.52H112.802V39H110.122V32.28L105.482 39H102.982ZM120.352 39V24.8H123.092V30.52H124.492L128.712 24.8H131.792L126.632 31.68L132.192 39H128.852L124.452 33.02H123.092V39H120.352ZM134.6 43.52C134.32 43.52 134.034 43.4867 133.74 43.42C133.46 43.3533 133.134 43.2533 132.76 43.12L133.28 41C133.68 41.1733 134.034 41.26 134.34 41.26C135.047 41.26 135.554 40.7733 135.86 39.8L136.18 38.94L131.94 28.52H134.72L137.54 36.26L140.02 28.52H142.58L138.3 40.5C137.954 41.46 137.447 42.2 136.78 42.72C136.127 43.2533 135.4 43.52 134.6 43.52ZM150.316 39.2C149.49 39.2 148.77 39.0133 148.156 38.64C147.543 38.2667 147.063 37.7733 146.716 37.16V43.26H144.036V28.52H146.376V30.32C146.763 29.7067 147.263 29.2267 147.876 28.88C148.503 28.52 149.21 28.34 149.996 28.34C150.943 28.34 151.783 28.5867 152.516 29.08C153.25 29.56 153.83 30.2133 154.256 31.04C154.683 31.8533 154.896 32.7533 154.896 33.74C154.896 34.7667 154.696 35.6933 154.296 36.52C153.91 37.3333 153.37 37.9867 152.676 38.48C151.996 38.96 151.21 39.2 150.316 39.2ZM149.416 36.92C149.963 36.92 150.436 36.7733 150.836 36.48C151.25 36.1733 151.57 35.78 151.796 35.3C152.036 34.8067 152.156 34.2867 152.156 33.74C152.156 33.1533 152.03 32.6267 151.776 32.16C151.523 31.68 151.176 31.3067 150.736 31.04C150.31 30.76 149.816 30.62 149.256 30.62C148.75 30.62 148.243 30.7867 147.736 31.12C147.23 31.4533 146.89 31.8733 146.716 32.38V34.84C146.956 35.4267 147.323 35.92 147.816 36.32C148.31 36.72 148.843 36.92 149.416 36.92ZM161.592 39.2C160.459 39.2 159.479 38.9467 158.652 38.44C157.826 37.9333 157.186 37.2667 156.732 36.44C156.279 35.6133 156.052 34.72 156.052 33.76C156.052 32.7867 156.272 31.8867 156.712 31.06C157.166 30.2333 157.806 29.5733 158.632 29.08C159.459 28.5867 160.439 28.34 161.572 28.34C162.719 28.34 163.692 28.5867 164.492 29.08C165.306 29.5733 165.912 30.22 166.312 31.02L163.692 31.82C163.226 31.02 162.512 30.62 161.552 30.62C161.032 30.62 160.566 30.7533 160.152 31.02C159.739 31.2733 159.412 31.64 159.172 32.12C158.932 32.5867 158.812 33.1333 158.812 33.76C158.812 34.3733 158.932 34.92 159.172 35.4C159.426 35.8667 159.759 36.24 160.172 36.52C160.586 36.7867 161.046 36.92 161.552 36.92C162.032 36.92 162.472 36.8067 162.872 36.58C163.286 36.34 163.572 36.04 163.732 35.68L166.352 36.48C165.992 37.2667 165.392 37.92 164.552 38.44C163.726 38.9467 162.739 39.2 161.592 39.2Z" fill="#505050"/>
</svg>
