<svg width="148" height="148" viewBox="0 0 148 148" fill="none" xmlns="http://www.w3.org/2000/svg">
<circle cx="74" cy="74" r="74" fill="#ECECEC"/>
<g clip-path="url(#clip0_325_340)">
<path d="M73.9994 54.7433C74.6896 54.7433 75.2494 54.1835 75.2494 53.4933V47.1258C75.2494 46.4355 74.6898 45.8758 73.9994 45.8758C73.309 45.8758 72.7494 46.4354 72.7494 47.1258V53.4933C72.7495 54.1835 73.3091 54.7433 73.9994 54.7433Z" fill="#454545"/>
<path d="M64.6015 56.7966C64.8391 57.1738 65.245 57.3803 65.6601 57.3803C65.8879 57.3803 66.1185 57.318 66.3254 57.1876C66.9094 56.8196 67.0844 56.0478 66.7164 55.4636L63.3859 50.1793C63.0177 49.5953 62.2459 49.4201 61.662 49.7883C61.078 50.1563 60.903 50.9281 61.271 51.5123L64.6015 56.7966Z" fill="#454545"/>
<path d="M81.6775 57.188C81.8844 57.3182 82.1147 57.3803 82.3422 57.3803C82.7575 57.3803 83.1636 57.1735 83.4012 56.7962L86.7282 51.5118C87.096 50.9275 86.9206 50.1559 86.3364 49.7879C85.7519 49.4203 84.9805 49.5958 84.6126 50.1798L81.2856 55.4642C80.9179 56.0485 81.0934 56.8202 81.6775 57.188Z" fill="#454545"/>
<path d="M105.597 75.3041L103.425 71.4672C103.085 70.8662 102.322 70.6549 101.722 70.9952C101.121 71.3353 100.91 72.0979 101.25 72.6986L103.421 76.5338C103.529 76.7266 103.501 76.9124 103.475 77.0061C103.449 77.0962 103.379 77.2626 103.195 77.3641L99.8479 79.2182C99.5505 79.3824 99.1624 79.2787 99.0003 78.9927L98.1499 77.4884C98.1464 77.4817 98.1424 77.4754 98.1387 77.4688L89.3475 61.9196C89.2389 61.7282 89.2664 61.5447 89.2924 61.4523C89.3175 61.3629 89.3872 61.1978 89.571 61.0962L92.9222 59.2417C93.2234 59.0749 93.602 59.1762 93.7666 59.4679L95.7259 62.9296C96.066 63.5304 96.8289 63.7416 97.4294 63.4017C98.0303 63.0617 98.2415 62.2989 97.9015 61.6982L95.9431 58.2381C95.1079 56.7573 93.2101 56.2262 91.7124 57.0541L88.3613 58.9086C87.6361 59.3093 87.1123 59.9717 86.8862 60.7741C86.673 61.5306 86.7492 62.3203 87.0984 63.0134L85.2524 63.5484C84.466 63.7759 83.9887 63.8993 83.7239 63.8993C83.7227 63.8993 83.7217 63.8993 83.7207 63.8993C83.5384 63.8987 83.3395 63.8291 82.7719 63.6141C82.5144 63.5166 82.1938 63.3951 81.7996 63.2576L78.529 62.1142C76.7201 61.4824 75.9043 61.5164 74.7223 61.6243L69.1452 62.1234C66.6029 62.3487 64.982 62.9222 64.0872 63.9168L60.909 62.9959C61.251 62.3058 61.3244 61.5237 61.1131 60.7741C60.8871 59.9722 60.3636 59.3099 59.6392 58.9092L56.29 57.0538C54.791 56.2252 52.8921 56.7566 52.0567 58.2369L42.4062 75.3023C41.9931 76.0297 41.8909 76.8757 42.1186 77.6846C42.3449 78.4878 42.8686 79.1508 43.5924 79.5511L46.9416 81.4062C47.4205 81.6709 47.9407 81.7967 48.4541 81.7967C49.5447 81.7967 50.605 81.2293 51.1749 80.2232L51.5287 79.5972C52.4945 80.0223 53.3054 80.6399 53.858 81.3712C53.3182 82.0019 52.9782 82.7803 52.8829 83.6269C52.7569 84.7466 53.0731 85.8451 53.7734 86.7207C54.4676 87.5888 55.4604 88.1366 56.5705 88.2656C56.453 89.3757 56.7705 90.4634 57.4654 91.3293C58.1836 92.2273 59.1987 92.7512 60.2606 92.8748C60.1436 93.9833 60.46 95.0701 61.1527 95.9364C61.8466 96.8064 62.8396 97.3553 63.9509 97.4843C63.8332 98.5953 64.1507 99.6837 64.8456 100.55C65.6739 101.585 66.8966 102.124 68.131 102.124C69.0525 102.124 69.9805 101.824 70.7552 101.205L73.3725 99.1107C73.5804 98.9448 73.7692 98.7614 73.9391 98.5639L75.4341 99.7582C76.2072 100.375 77.1331 100.675 78.0534 100.675C79.2884 100.675 80.5131 100.135 81.3425 99.0984C81.7796 98.5519 82.0564 97.9282 82.1814 97.2843C82.6185 97.4356 83.08 97.5137 83.5505 97.5136C83.7082 97.5136 83.867 97.5048 84.0262 97.4872C85.1462 97.3628 86.1478 96.8121 86.8436 95.9393C87.5397 95.0721 87.8573 93.9844 87.7399 92.8744C88.801 92.7506 89.8166 92.2268 90.537 91.3292C91.2545 90.4321 91.5425 89.3276 91.4297 88.2653C92.5392 88.1361 93.5315 87.5884 94.2241 86.7223C94.9249 85.8491 95.2425 84.7522 95.1184 83.6334C95.0241 82.7842 94.6839 82.0032 94.1431 81.3707C94.6941 80.6397 95.5034 80.0213 96.4697 79.5964L96.8244 80.2237C97.3939 81.2294 98.4536 81.7966 99.5445 81.7966C100.058 81.7964 100.579 81.6707 101.058 81.4057L104.406 79.5514C105.129 79.1514 105.653 78.4894 105.88 77.6876C106.109 76.8794 106.009 76.0334 105.597 75.3041ZM48.9991 78.9921C48.8366 79.2791 48.4482 79.3826 48.1521 79.2187L44.803 77.3637C44.6201 77.2624 44.5504 77.0967 44.5249 77.0068C44.4987 76.9137 44.4709 76.7288 44.5811 76.5351L54.2331 59.4663C54.3436 59.2704 54.5519 59.1607 54.7681 59.1607C54.8734 59.1607 54.9804 59.1866 55.0791 59.2412L58.4274 61.0959C58.4277 61.0962 58.4281 61.0964 58.4285 61.0966C58.6117 61.1979 58.6814 61.3631 58.7066 61.4524C58.7326 61.5448 58.7601 61.7283 58.6502 61.9218L48.9991 78.9921ZM58.1209 85.4246C57.7684 85.7069 57.3232 85.8346 56.8684 85.7839C56.4132 85.7334 56.0076 85.5117 55.7259 85.1594C55.4435 84.8063 55.3162 84.3613 55.3674 83.9066C55.4182 83.4537 55.6401 83.0501 55.9944 82.7682L60.6741 79.0274C61.4086 78.4411 62.4837 78.5617 63.0707 79.2948C63.353 79.6477 63.4804 80.0919 63.4294 80.5453C63.3786 80.9972 63.1566 81.4004 62.8044 81.6807C62.7966 81.6868 62.79 81.6937 62.7825 81.7001L58.122 85.4237C58.1216 85.4239 58.1212 85.4243 58.1209 85.4246ZM59.4164 89.7663C59.1342 89.4147 59.0067 88.9716 59.0571 88.5186C59.1075 88.0652 59.3296 87.6597 59.6824 87.3768L59.6827 87.3766C59.683 87.3764 59.6832 87.3762 59.6835 87.3761C59.6836 87.3761 59.6836 87.3759 59.6837 87.3758L66.4245 81.9903C67.1589 81.4038 68.2342 81.5236 68.8211 82.2577C69.103 82.6101 69.2304 83.0538 69.18 83.5071C69.1295 83.9608 68.9067 84.3663 68.5531 84.6488L61.8141 90.0323C61.0789 90.6191 60.0039 90.5007 59.4164 89.7663ZM64.2486 95.0026C63.7936 94.9521 63.3884 94.7301 63.1062 94.3763C62.8244 94.0239 62.697 93.5802 62.7474 93.1269C62.7979 92.6736 63.0202 92.2684 63.3734 91.9859C63.3736 91.9857 63.374 91.9854 63.3742 91.9852L68.039 88.2587C68.0445 88.2544 68.0505 88.2508 68.056 88.2464C68.7885 87.6601 69.8635 87.7794 70.451 88.5117C70.7334 88.8647 70.8607 89.3097 70.8096 89.7644C70.7586 90.2173 70.5367 90.6209 70.1826 90.9028L65.503 94.6434C65.1494 94.9258 64.7037 95.0528 64.2486 95.0026ZM72.4384 96.0173C72.3877 96.4707 72.1656 96.8753 71.8119 97.1578L69.1945 99.2524C68.4591 99.8393 67.3841 99.7212 66.7969 98.9867C66.5147 98.6353 66.3871 98.1918 66.4375 97.7379C66.4879 97.2841 66.7097 96.8792 67.0619 96.5979C67.0622 96.5977 67.0627 96.5973 67.0631 96.5971L69.6799 94.5053C69.6812 94.5042 69.6827 94.5033 69.6841 94.5023C70.4187 93.9161 71.4939 94.0362 72.0809 94.7697C72.362 95.1214 72.4891 95.5643 72.4384 96.0173ZM92.2731 85.1593C91.9914 85.5116 91.5856 85.7334 91.1306 85.7839C90.676 85.8351 90.2306 85.7071 89.8781 85.4246C89.878 85.4244 89.8778 85.4243 89.8775 85.4242C89.8774 85.4241 89.8771 85.4239 89.877 85.4238L86.5322 82.7514C85.9927 82.3204 85.2063 82.4084 84.7755 82.9477C84.3446 83.4869 84.4325 84.2736 84.9717 84.7044L88.3154 87.3759C89.0489 87.9633 89.1698 89.0363 88.586 89.7662C87.997 90.5002 86.9219 90.6196 86.1879 90.0317L82.5597 87.1364C82.0202 86.7059 81.2337 86.7943 80.8031 87.3338C80.3726 87.8733 80.4609 88.6598 81.0005 89.0904L84.6269 91.9843C84.9803 92.2673 85.2026 92.6731 85.2531 93.1269C85.3035 93.5799 85.176 94.0232 84.8915 94.3776C84.6104 94.7301 84.2051 94.9519 83.7503 95.0026C83.2949 95.0527 82.8493 94.9256 82.497 94.6444L80.6917 93.2007C80.6886 93.1982 80.6859 93.1956 80.6828 93.1931L79.1575 91.9737L78.8724 91.7457C78.333 91.3144 77.5465 91.4021 77.1155 91.9411C77.0616 92.0086 77.0158 92.0798 76.978 92.1538C76.797 92.5076 76.8 92.9224 76.9699 93.2703C77.0485 93.4314 77.1618 93.5786 77.311 93.6979L79.1261 95.1496C79.8548 95.7379 79.9739 96.8073 79.3905 97.5367C78.8034 98.2706 77.7281 98.3904 76.994 97.8048L74.9346 96.1596C75.0204 95.0897 74.7034 94.0463 74.0329 93.2079C73.6161 92.6871 73.0992 92.2926 72.5316 92.0279C72.9476 91.4508 73.2117 90.7728 73.2937 90.0438C73.4197 88.9243 73.1035 87.8258 72.402 86.9487C71.9851 86.4292 71.4689 86.0356 70.9024 85.7716C71.3191 85.1927 71.5832 84.5133 71.6645 83.7833C71.7889 82.6663 71.4724 81.5699 70.7734 80.6958C69.5706 79.1921 67.5366 78.7349 65.8437 79.4534C65.7082 78.8312 65.4314 78.2442 65.0226 77.7331C63.5754 75.9246 60.9251 75.6287 59.1137 77.0739L55.7667 79.7493C55.0099 78.7834 53.981 77.9824 52.7645 77.4112L59.6494 65.2336L63.3151 66.2957C63.3319 66.4918 63.3636 66.6981 63.4167 66.9166C64.3041 70.5651 67.6634 72.2651 72.1837 71.3542C75.9925 70.5878 77.5605 71.7294 80.6834 74.0036C81.0074 74.2394 81.344 74.4846 81.6964 74.7369C83.9423 76.3482 86.3423 78.2421 87.9514 79.5257L92.0089 82.7684C92.3614 83.0497 92.5832 83.4547 92.6336 83.9089C92.684 84.3628 92.5565 84.8063 92.2731 85.1593ZM92.2342 79.7486L89.5114 77.5724C87.88 76.2711 85.4461 74.3507 83.153 72.7054C82.8055 72.4566 82.4741 72.2152 82.1551 71.9829C78.9169 69.6248 76.5765 67.9211 71.6905 68.9037C70.195 69.2051 66.632 69.5574 65.8461 66.3264C65.7354 65.8703 65.8479 65.7136 65.8957 65.6467C66.0629 65.4137 66.7354 64.8466 69.3665 64.6136L74.9494 64.1139C75.8591 64.0309 76.3155 63.9892 77.704 64.4742L80.975 65.6177C81.3386 65.7447 81.6294 65.8547 81.886 65.9519C83.461 66.5486 83.8784 66.5484 85.9475 65.9496L88.359 65.2508L95.2346 77.4119C94.0178 77.9828 92.9899 78.7832 92.2342 79.7486Z" fill="#454545"/>
<path d="M99.5712 68.4499C100.261 68.4499 100.821 67.8884 100.821 67.1981C100.821 66.5077 100.261 65.9481 99.5712 65.9481C98.881 65.9481 98.3212 66.5078 98.3212 67.1981V67.2016C98.3212 67.8919 98.881 68.4499 99.5712 68.4499Z" fill="#454545"/>
</g>
<defs>
<clipPath id="clip0_325_340">
<rect width="64" height="64" fill="white" transform="translate(42 42)"/>
</clipPath>
</defs>
</svg>
