<svg width="148" height="148" viewBox="0 0 148 148" fill="none" xmlns="http://www.w3.org/2000/svg">
<circle cx="74" cy="74" r="74" fill="#ECECEC"/>
<path d="M105.991 50.8539C105.991 45.9719 102.019 42 97.1371 42C92.8957 42 89.3431 44.9984 88.4832 48.9865H76.2025C74.5335 48.9865 72.9643 49.6364 71.7837 50.8166L43.8401 78.7536C42.6595 79.9339 42.0091 81.5035 42.0091 83.1729C42.009 84.8425 42.6591 86.4121 43.8397 87.5926L60.4164 104.169C61.5968 105.35 63.1663 106 64.8356 106C66.5049 106 68.0743 105.35 69.2548 104.169L78.9225 94.5017C79.4106 94.0135 79.4106 93.2221 78.9225 92.7338C78.4342 92.2459 77.643 92.2459 77.1546 92.7338L67.487 102.402C66.0249 103.864 63.646 103.864 62.1839 102.402L45.6072 85.825C44.8989 85.1166 44.5088 84.1749 44.5089 83.173C44.5089 82.1713 44.899 81.2297 45.6075 80.5215L73.5513 52.5845C74.2595 51.8764 75.2011 51.4864 76.2025 51.4864H88.308C88.4572 53.6128 89.3542 55.5923 90.8763 57.1143C91.3645 57.6026 92.1559 57.6026 92.644 57.1145C93.1322 56.6264 93.1322 55.835 92.6441 55.3468C91.5944 54.2969 90.9573 52.9445 90.8142 51.4863H92.7801C94.8478 51.4863 96.53 53.1685 96.53 55.2362V71.8056C96.53 72.8072 96.14 73.7489 95.4316 74.4571L85.1094 84.7794C84.6213 85.2675 84.6213 86.059 85.1094 86.5472C85.5976 87.0352 86.3888 87.0352 86.8772 86.5472L97.1994 76.2249C98.3798 75.0445 99.03 73.475 99.03 71.8057V59.5036C103.061 58.6333 105.991 55.0765 105.991 50.8539ZM99.0299 56.9224V55.2362C99.0299 51.79 96.2262 48.9864 92.7801 48.9864H91.0637C91.8632 46.3913 94.2833 44.4999 97.1371 44.4999C100.641 44.4999 103.491 47.3503 103.491 50.8539C103.491 53.6952 101.644 56.1164 99.0299 56.9224Z" fill="#454545"/>
<path d="M59.2469 83.1053C59.735 82.6172 59.735 81.8257 59.2469 81.3375C58.7587 80.8495 57.9674 80.8495 57.4791 81.3375L54.4701 84.3465C53.982 84.8346 53.982 85.6261 54.4701 86.1143L61.8943 93.5387C62.1384 93.7827 62.4583 93.9048 62.7782 93.9048C63.098 93.9048 63.4179 93.7827 63.662 93.5387C64.1501 93.0506 64.1501 92.2591 63.662 91.7709L60.7633 88.8722L62.6495 86.986C63.1376 86.4979 63.1376 85.7064 62.6495 85.2182C62.1613 84.7302 61.3701 84.7302 60.8817 85.2182L58.9955 87.1044L57.1213 85.2302L59.2469 83.1053Z" fill="#454545"/>
<path d="M74.0014 82.6829C74.6554 82.6829 75.2055 82.1745 75.2476 81.5126C75.2916 80.8236 74.7688 80.2295 74.0798 80.1857L69.9476 79.9222C70.295 79.3251 70.4919 78.6495 70.5138 77.9469C70.5482 76.8413 70.1488 75.8141 69.3892 75.0543C67.838 73.5031 65.265 73.5519 63.6532 75.1635L61.6803 77.1364C61.6799 77.1368 61.6795 77.1373 61.6791 77.1376C61.6788 77.138 61.6783 77.1384 61.6779 77.1388C61.1898 77.6269 61.1898 78.4183 61.6779 78.9066L69.1022 86.3308C69.3464 86.5748 69.6662 86.6969 69.9861 86.6969C70.3059 86.6969 70.6258 86.5748 70.8699 86.3308C71.358 85.8427 71.358 85.0512 70.8699 84.563L68.6511 82.3443L73.9204 82.6803C73.9478 82.6821 73.9748 82.6829 74.0014 82.6829ZM65.4211 76.9311C66.0471 76.3052 67.0547 76.2552 67.6215 76.822C67.8882 77.0886 68.0279 77.4603 68.0152 77.8687C68.0019 78.2957 67.8185 78.7161 67.5123 79.0223C67.2617 79.2729 66.8299 79.7083 66.4357 80.1064C66.0463 79.721 65.6237 79.3019 65.3826 79.0609C65.1764 78.8548 64.7406 78.4213 64.3347 78.0175L65.4211 76.9311Z" fill="#454545"/>
<path d="M86.175 71.026L89.3033 67.8977C89.7914 67.4096 89.7914 66.6181 89.3033 66.1299C88.8151 65.6419 88.0238 65.6419 87.5355 66.1299L85.2911 68.3743L83.3466 66.4299L85.3603 64.4161C85.8484 63.928 85.8484 63.1365 85.3603 62.6483C84.8721 62.1603 84.0808 62.1603 83.5925 62.6483L81.5788 64.6621L79.6343 62.7175L81.8788 60.4731C82.3669 59.985 82.3669 59.1935 81.8788 58.7053C81.3906 58.2173 80.5993 58.2173 80.111 58.7053L76.9827 61.8335C76.4946 62.3217 76.4946 63.1131 76.9827 63.6014L80.6943 67.313L80.695 67.3136C80.695 67.3136 80.6953 67.314 80.6956 67.3142L84.4071 71.0258C84.6416 71.2602 84.9594 71.392 85.2909 71.392C85.6224 71.392 85.9405 71.2603 86.175 71.026Z" fill="#454545"/>
<path d="M78.0419 78.6415C78.3733 78.6415 78.6912 78.5097 78.9257 78.2754L82.054 75.1471C82.5421 74.659 82.5421 73.8675 82.054 73.3793C81.5657 72.8913 80.7745 72.8913 80.2861 73.3793L78.0417 75.6237L76.0973 73.6793L78.1112 71.6655C78.5993 71.1774 78.5993 70.3859 78.1112 69.8977C77.6231 69.4099 76.8319 69.4097 76.3434 69.8977L74.3296 71.9115L72.3852 69.967L74.6297 67.7226C75.1178 67.2345 75.1178 66.443 74.6297 65.9548C74.1415 65.4668 73.3503 65.4668 72.8619 65.9548L69.7336 69.0831C69.2455 69.5712 69.2455 70.3626 69.7336 70.8509L77.1579 78.2752C77.3924 78.5097 77.7102 78.6415 78.0419 78.6415Z" fill="#454545"/>
<path d="M82.016 88.3907C81.6872 88.3907 81.3647 88.5245 81.1322 88.757C80.8998 88.9895 80.766 89.312 80.766 89.6407C80.766 89.9695 80.8997 90.292 81.1322 90.5245C81.3647 90.7569 81.6872 90.8907 82.016 90.8907C82.3447 90.8907 82.6672 90.757 82.8997 90.5245C83.1321 90.292 83.266 89.9695 83.266 89.6407C83.266 89.312 83.1322 88.9895 82.8997 88.757C82.6672 88.5245 82.3447 88.3907 82.016 88.3907Z" fill="#454545"/>
</svg>
