<svg width="148" height="148" viewBox="0 0 148 148" fill="none" xmlns="http://www.w3.org/2000/svg">
<circle cx="74" cy="74" r="74" fill="#ECECEC"/>
<g clip-path="url(#clip0_364_592)">
<path d="M98.3324 94.8065H97.6365C97.1889 92.1654 94.8863 90.1473 92.1198 90.1473H82.6625C82.6341 90.1473 82.6062 90.1491 82.5785 90.1516L75.212 81.3116C74.1439 80.0175 72.5699 79.2753 70.8936 79.2753H56.2999V79.1776C56.2999 77.5187 54.9504 76.1692 53.2916 76.1692H52.1585V76.0711C52.1585 74.4122 50.809 73.0627 49.1501 73.0627H43.973C42.8851 73.0627 42 73.9477 42 75.0357V78.6002C42 79.118 42.4197 79.5377 42.9375 79.5377C43.4552 79.5377 43.875 79.118 43.875 78.6002V75.0357C43.875 74.9817 43.919 74.9377 43.973 74.9377H49.1501C49.7751 74.9377 50.2835 75.4461 50.2835 76.0711V96.7792C50.2835 97.404 49.7751 97.9125 49.1501 97.9125H43.973C43.919 97.9125 43.875 97.8685 43.875 97.8145V82.3501C43.875 81.8323 43.4552 81.4126 42.9375 81.4126C42.4197 81.4126 42 81.8323 42 82.3501V97.8145C42 98.9024 42.8851 99.7875 43.973 99.7875H49.1501C50.809 99.7875 52.1585 98.438 52.1585 96.7792V96.6814H53.2916C54.9503 96.6814 56.2999 95.3319 56.2999 93.673V93.575H58.4686C59.6547 93.575 60.7804 94.1484 61.4797 95.1089C61.4823 95.1124 61.4849 95.116 61.4875 95.1195L67.9248 103.702C68.9761 105.141 70.6665 106 72.4468 106H98.3325C101.419 106 103.929 103.489 103.929 100.403C103.929 97.3171 101.419 94.8065 98.3324 94.8065ZM95.7218 94.8065H84.2213C84.2436 94.6042 84.256 94.3989 84.256 94.1907C84.256 93.4402 84.1046 92.7027 83.8192 92.0223H92.1198C93.8483 92.0223 95.305 93.2067 95.7218 94.8065ZM53.2916 94.8064H52.1585V78.0441H53.2916C53.9165 78.0441 54.425 78.5525 54.425 79.1775V80.2103C54.425 80.2112 54.4248 80.212 54.4248 80.2127C54.4248 80.2135 54.425 80.2143 54.425 80.2151V93.6729C54.425 94.2979 53.9165 94.8064 53.2916 94.8064ZM98.3324 104.125H72.4468C71.2629 104.125 70.1384 103.553 69.4318 102.586L62.9913 93.9995C61.9399 92.5594 60.2497 91.7 58.4684 91.7H56.2999V81.1503H70.8935C72.0084 81.1503 73.0553 81.6442 73.7686 82.5086L81.4937 91.7787C82.0658 92.4503 82.381 93.3069 82.381 94.1907C82.381 96.2429 80.7115 97.9125 78.6591 97.9125C77.5442 97.9125 76.4974 97.4186 75.7866 96.5574L68.5103 87.7473C68.1805 87.3481 67.5896 87.2916 67.1904 87.6214C66.7912 87.9512 66.7348 88.5421 67.0645 88.9413L74.3406 97.7511C75.4086 99.0453 76.9826 99.7876 78.6591 99.7876C80.8506 99.7876 82.7508 98.5208 83.6691 96.6817H96.7767C96.7775 96.6817 96.7783 96.6818 96.779 96.6818C96.7798 96.6818 96.7807 96.6817 96.7814 96.6817H98.3324C100.385 96.6817 102.054 98.3513 102.054 100.403C102.054 102.456 100.385 104.125 98.3324 104.125Z" fill="#454545"/>
<path d="M78.6988 63.0645C79.0545 63.2705 79.2752 63.6427 79.2752 64.0355V64.9297C78.0742 65.3247 77.2044 66.4561 77.2044 67.7876C77.2044 69.1191 78.0742 70.2506 79.2752 70.6456V72.0001C79.2752 73.6199 80.593 74.9376 82.2127 74.9376H86.4961C88.1158 74.9376 89.4335 73.6199 89.4335 72.0001V70.6456C90.6345 70.2506 91.5043 69.1191 91.5043 67.7878C91.5043 66.4563 90.6345 65.3248 89.4335 64.9298V64.0514C89.4335 63.6494 89.6588 63.2687 90.0215 63.0579C93.4908 61.0412 95.6459 57.2991 95.6459 53.2921C95.6459 50.2381 94.446 47.3775 92.2674 45.237C90.0892 43.097 87.2038 41.9492 84.1502 42.0022C81.1942 42.0545 78.4234 43.2305 76.3481 45.3134C75.9827 45.6801 75.9839 46.2737 76.3506 46.6392C76.7174 47.0046 77.3109 47.0035 77.6765 46.6367C79.4061 44.9007 81.717 43.9206 84.1834 43.877C86.7316 43.8309 89.1369 44.7899 90.9533 46.5745C92.7703 48.3596 93.7709 50.7453 93.7709 53.2921C93.7709 56.6337 91.9732 59.7547 89.0793 61.4369C88.1413 61.982 87.5586 62.9839 87.5586 64.0515V64.7795H85.2918V58.3712H86.4251C86.9429 58.3712 87.3626 57.9514 87.3626 57.4337C87.3626 56.9159 86.9429 56.4962 86.4251 56.4962H82.2835C81.7656 56.4962 81.346 56.9159 81.346 57.4337C81.346 57.9514 81.7656 58.3712 82.2835 58.3712H83.4167V64.7795H81.1501V64.0358C81.1501 62.9765 80.5711 61.9829 79.6391 61.4427C76.7391 59.7614 74.9376 56.6383 74.9375 53.2922C74.9375 51.9727 75.2017 50.6985 75.7229 49.5052C75.9301 49.0307 75.7135 48.4781 75.2389 48.2708C74.7649 48.0636 74.2117 48.2803 74.0046 48.7548C73.3795 50.1863 73.0625 51.713 73.0625 53.2922C73.0627 57.3046 75.2224 61.0492 78.6988 63.0645ZM87.5586 72.0001C87.5586 72.586 87.0818 73.0626 86.4961 73.0626H82.2127C81.6268 73.0626 81.1502 72.586 81.1502 72.0001V70.796H87.5586V72.0001ZM88.4961 66.6543C89.1209 66.6543 89.6293 67.1626 89.6293 67.7876C89.6293 68.4125 89.1209 68.9209 88.4961 68.9209H80.2127C79.5877 68.9209 79.0793 68.4125 79.0793 67.7876C79.0793 67.1628 79.5877 66.6543 80.2127 66.6543H88.4961Z" fill="#454545"/>
<path d="M63.646 58.3711H67.7876C68.3054 58.3711 68.7251 57.9514 68.7251 57.4337C68.7251 56.9159 68.3054 56.4962 67.7876 56.4962H63.646C63.1282 56.4962 62.7085 56.9159 62.7085 57.4337C62.7085 57.9514 63.1282 58.3711 63.646 58.3711Z" fill="#454545"/>
<path d="M70.6483 69.0467L67.0615 71.1175C66.6132 71.3764 66.4595 71.9498 66.7184 72.3981C66.892 72.6989 67.2072 72.867 67.5312 72.867C67.6902 72.867 67.8514 72.8265 67.999 72.7413L71.5858 70.6704C72.0342 70.4115 72.1878 69.8382 71.9289 69.3898C71.6699 68.9414 71.0967 68.7878 70.6483 69.0467Z" fill="#454545"/>
<path d="M97.1228 70.6704L100.71 72.7413C100.857 72.8265 101.018 72.867 101.177 72.867C101.501 72.867 101.817 72.6989 101.99 72.3982C102.249 71.9498 102.095 71.3764 101.647 71.1175L98.0603 69.0467C97.6117 68.7877 97.0384 68.9413 96.7797 69.3898C96.5208 69.8381 96.6744 70.4115 97.1228 70.6704Z" fill="#454545"/>
<path d="M105.063 56.4961H100.921C100.403 56.4961 99.9833 56.9158 99.9833 57.4336C99.9833 57.9513 100.403 58.3711 100.921 58.3711H105.063C105.58 58.3711 106 57.9513 106 57.4336C106 56.9158 105.58 56.4961 105.063 56.4961Z" fill="#454545"/>
<path d="M97.5924 45.9463C97.7514 45.9463 97.9128 45.9058 98.0603 45.8205L101.647 43.7496C102.095 43.4908 102.249 42.9174 101.99 42.469C101.731 42.0206 101.158 41.867 100.71 42.1259L97.1228 44.1968C96.6744 44.4556 96.5208 45.029 96.7797 45.4774C96.9534 45.7781 97.2684 45.9463 97.5924 45.9463Z" fill="#454545"/>
<path d="M67.0614 43.7496L70.6482 45.8205C70.7958 45.9058 70.957 45.9463 71.116 45.9463C71.44 45.9463 71.7552 45.7781 71.9288 45.4773C72.1877 45.0289 72.034 44.4555 71.5857 44.1966L67.9989 42.1259C67.5505 41.8669 66.9772 42.0205 66.7183 42.469C66.4594 42.9174 66.613 43.4908 67.0614 43.7496Z" fill="#454545"/>
</g>
<defs>
<clipPath id="clip0_364_592">
<rect width="64" height="64" fill="white" transform="translate(42 42)"/>
</clipPath>
</defs>
</svg>
