<svg width="48" height="48" viewBox="0 0 48 48" fill="none" xmlns="http://www.w3.org/2000/svg">
<circle cx="24" cy="24" r="23.25" stroke="#F5F5F5" stroke-width="1.5"/>
<path fill-rule="evenodd" clip-rule="evenodd" d="M34.037 34.001H29.885V27.505C29.885 25.955 29.859 23.963 27.728 23.963C25.568 23.963 25.238 25.651 25.238 27.393V34.001H21.09V20.641H25.07V22.468H25.128C25.681 21.418 27.036 20.31 29.056 20.31C33.26 20.31 34.036 23.076 34.036 26.674V34.001H34.037ZM16.409 18.817C16.0926 18.8173 15.7792 18.7551 15.4868 18.6342C15.1944 18.5132 14.9287 18.3358 14.705 18.112C14.4812 17.8883 14.3038 17.6226 14.1828 17.3302C14.0619 17.0378 13.9997 16.7244 14 16.408C14 15.9318 14.1412 15.4663 14.4057 15.0704C14.6702 14.6744 15.0461 14.3658 15.486 14.1835C15.9259 14.0012 16.41 13.9534 16.877 14.0461C17.3441 14.1389 17.7732 14.368 18.11 14.7046C18.4469 15.0411 18.6763 15.47 18.7695 15.937C18.8626 16.404 18.8152 16.8881 18.6333 17.3281C18.4513 17.7682 18.143 18.1444 17.7473 18.4092C17.3515 18.674 16.8862 18.8156 16.41 18.816L16.409 18.817ZM18.486 34.001H14.33V20.641H18.486V34.001Z" fill="#F5F5F5"/>
</svg>
