<svg width="204" height="57" viewBox="0 0 204 57" fill="none" xmlns="http://www.w3.org/2000/svg">
<path d="M0.479248 56.3077H8.87051V41.6239H11.4268C14.8722 41.6796 16.4838 42.9537 17.484 47.6082C18.5955 52.2073 19.4846 55.2549 20.0959 56.3077H28.765C28.0426 54.867 26.8756 49.9909 25.7086 45.7797C24.7639 42.3443 23.319 39.8509 20.7072 38.798V38.6314C23.9303 37.4679 27.3201 34.1987 27.3201 29.4334C27.3201 25.9979 26.0976 23.3936 23.8747 21.6205C21.2073 19.5149 17.3173 18.6838 11.7602 18.6838C7.25894 18.6838 3.20224 19.0164 0.479248 19.4596V56.3077ZM8.87051 25.2225C9.48178 25.1116 10.6488 24.9451 12.7049 24.9451C16.5949 25.0008 18.9289 26.7182 18.9289 30.1537C18.9289 33.4229 16.4282 35.5284 12.2048 35.5284H8.87051V25.2225Z" fill="#3A3A3A"/>
<path d="M49.9289 18.3517C38.9258 18.3517 31.5349 26.3307 31.5349 37.9114C31.5349 49.1043 38.4257 56.9172 49.2065 56.9172C59.2649 56.9172 67.545 50.1017 67.545 37.579C67.545 26.6631 61.2654 18.3517 49.9289 18.3517ZM49.5955 25.0562C55.8194 25.0562 58.598 31.3731 58.598 37.6898C58.598 44.4499 55.5416 50.2125 49.5399 50.2125C43.7049 50.2125 40.4818 44.6715 40.4818 37.6898C40.4818 30.7635 43.6494 25.0562 49.5955 25.0562Z" fill="#3A3A3A"/>
<path d="M91.6725 46.7216L94.5622 56.3076H103.676L92.0615 18.9611H80.9472L69.4996 56.3076H78.2798L80.9472 46.7216H91.6725ZM82.1698 40.4048L84.3927 32.4811C85.0039 30.3201 85.5596 27.4942 86.1154 25.2777H86.2265C86.7822 27.4942 87.4491 30.2646 88.1159 32.4811L90.4499 40.4048H82.1698Z" fill="#3A3A3A"/>
<path d="M107.246 54.59C109.358 55.7536 113.581 56.9172 117.86 56.9172C128.141 56.9172 132.976 51.5423 132.976 45.2809C132.976 40.017 129.864 36.5817 123.251 34.1436C118.416 32.315 116.304 31.2621 116.304 28.8795C116.304 26.9401 118.083 25.2778 121.75 25.2778C125.418 25.2778 128.085 26.3307 129.586 27.051L131.475 20.2357C129.252 19.2383 126.14 18.407 121.917 18.407C113.081 18.407 107.746 23.2277 107.746 29.5998C107.746 35.03 111.803 38.4656 118.027 40.6265C122.528 42.2334 124.307 43.5633 124.307 45.8905C124.307 48.3285 122.251 49.9354 118.361 49.9354C114.748 49.9354 111.247 48.7718 108.969 47.6082L107.246 54.59Z" fill="#3A3A3A"/>
<path d="M138.592 18.9611V39.9061C138.592 51.8193 144.149 56.9171 153.596 56.9171C163.377 56.9171 169.212 51.5423 169.212 40.0169V18.9611H160.765V40.5711C160.765 47.1095 158.32 50.1571 153.874 50.1571C149.539 50.1571 147.094 46.9432 147.094 40.5711V18.9611H138.592Z" fill="#FFB300"/>
<path d="M176.527 56.3077H184.918V43.0093C185.696 43.065 186.697 43.1757 187.864 43.1757C192.809 43.1757 197.088 41.9014 199.978 39.1863C202.201 37.1362 203.424 34.0331 203.424 30.3207C203.424 26.6635 201.812 23.5606 199.422 21.6767C196.922 19.6819 193.199 18.6845 187.975 18.6845C182.918 18.6845 179.139 19.017 176.527 19.4602V56.3077ZM184.918 25.3334C185.53 25.2225 186.641 25.0559 188.308 25.0559C192.698 25.0559 195.032 27.1061 195.032 30.597C195.032 34.3648 192.254 36.6367 187.752 36.6367C186.53 36.6367 185.53 36.5809 184.918 36.4701V25.3334Z" fill="#FFB300"/>
<path d="M138.727 15.1462L153.554 0.803226L168.944 15.1462H138.727Z" fill="#3A3A3A"/>
</svg>
