<svg width="48" height="48" viewBox="0 0 48 48" fill="none" xmlns="http://www.w3.org/2000/svg">
<circle cx="24" cy="24" r="23.25" stroke="#F5F5F5" stroke-width="1.5"/>
<path d="M35.706 17.1895C34.871 17.5595 33.974 17.8095 33.031 17.9225C34.004 17.3403 34.7319 16.424 35.079 15.3445C34.1648 15.8875 33.1643 16.2697 32.121 16.4745C31.4194 15.7254 30.4901 15.2288 29.4773 15.062C28.4646 14.8951 27.4251 15.0673 26.5202 15.5518C25.6154 16.0362 24.8958 16.8059 24.4732 17.7412C24.0505 18.6766 23.9485 19.7253 24.183 20.7245C22.3307 20.6315 20.5186 20.1501 18.8644 19.3114C17.2102 18.4728 15.7508 17.2957 14.581 15.8565C14.181 16.5465 13.951 17.3465 13.951 18.1985C13.9506 18.9655 14.1394 19.7208 14.5009 20.3973C14.8623 21.0737 15.3852 21.6506 16.023 22.0765C15.2833 22.053 14.5599 21.8531 13.913 21.4935V21.5535C13.9129 22.6293 14.285 23.6719 14.9662 24.5045C15.6473 25.3371 16.5956 25.9084 17.65 26.1215C16.9638 26.3072 16.2443 26.3346 15.546 26.2015C15.8435 27.1271 16.423 27.9365 17.2034 28.5164C17.9837 29.0963 18.9259 29.4177 19.898 29.4355C18.2478 30.7309 16.2099 31.4336 14.112 31.4305C13.7404 31.4306 13.3691 31.4089 13 31.3655C15.1295 32.7347 17.6083 33.4613 20.14 33.4585C28.71 33.4585 33.395 26.3605 33.395 20.2045C33.395 20.0045 33.39 19.8025 33.381 19.6025C34.2923 18.9435 35.0789 18.1274 35.704 17.1925L35.706 17.1895V17.1895Z" fill="#F5F5F5"/>
</svg>
