<svg width="48" height="48" viewBox="0 0 48 48" fill="none" xmlns="http://www.w3.org/2000/svg">
<circle cx="24" cy="24" r="23.25" stroke="#F5F5F5" stroke-width="1.5"/>
<path d="M14 23.5404V23.5125C14.251 20.2768 15.4226 17.8501 17.4589 16.3159C19.4672 14.7538 21.643 14.0007 24.0139 14.0007C26.4965 13.9728 28.8117 14.8096 30.8759 16.4832C32.9679 18.129 34 20.5837 34 23.7636V23.9588C34 27.1667 32.9679 29.5655 30.8759 31.2113C28.7838 32.8849 26.4686 33.7218 23.9861 33.7218H23.8745C21.4477 33.6939 19.2162 32.857 17.152 31.1834C15.0879 29.5377 14.0279 26.9993 14 23.5404ZM23.4003 19.1611V14.7538H22.7308C22.5914 14.9212 22.4798 15.1164 22.3682 15.2838C22.2566 15.4512 22.145 15.6185 22.0335 15.8138C21.9219 15.9812 21.7824 16.2043 21.6987 16.3717C21.5872 16.539 21.5035 16.7064 21.4198 16.9017C21.2524 17.1806 21.113 17.4595 21.0014 17.7106C20.8619 17.9616 20.7503 18.2127 20.6667 18.4358C20.834 18.5474 21.0293 18.6869 21.2524 18.7706C21.5035 18.8542 21.7545 18.9379 22.0056 18.9937C22.2845 19.0495 22.5356 19.0774 22.7587 19.1053C23.0098 19.1332 23.2329 19.1611 23.4003 19.1611ZM24.5718 14.7538V19.1332C24.7113 19.1332 24.8787 19.1611 25.046 19.1332C25.2134 19.1332 25.4086 19.1053 25.576 19.0774C25.8828 19.0216 26.2455 18.9379 26.5244 18.8542C26.8312 18.7427 27.1102 18.6032 27.3054 18.4358C26.9707 17.6269 26.6081 16.9853 26.2455 16.3717C25.8828 15.758 25.4644 15.228 25.0181 14.7817V14.7538H24.5718ZM21.5593 15.0049V14.977C21.364 15.0606 21.1688 15.2001 20.9456 15.2838C20.7503 15.3675 20.4993 15.4791 20.304 15.5906C19.9135 15.7859 19.523 16.009 19.1325 16.2601C18.7699 16.5111 18.4073 16.7901 18.1004 17.069C18.212 17.1806 18.3515 17.2922 18.463 17.3759C18.5746 17.4595 18.7141 17.5711 18.8536 17.6827C18.9651 17.7385 19.1046 17.8222 19.2441 17.9337C19.3835 18.0174 19.5509 18.129 19.7183 18.2406C19.9414 17.7385 20.1646 17.2085 20.4435 16.7343C20.7225 16.2322 21.0293 15.758 21.3361 15.3396C21.364 15.2838 21.3919 15.228 21.4477 15.1722C21.4756 15.1443 21.5035 15.0606 21.5593 15.0049ZM30.0948 17.069V17.0411C29.3975 16.5111 28.7838 16.0648 28.1702 15.7859C27.5565 15.507 26.9428 15.228 26.3849 15.0049C26.8312 15.4512 27.2218 16.009 27.4728 16.539C27.7517 17.0969 28.0307 17.6827 28.2538 18.2406C28.3654 18.1848 28.5049 18.129 28.6722 18.0174C28.8117 17.9337 29.007 17.8501 29.1743 17.7664C29.3417 17.6548 29.4812 17.5432 29.6485 17.4316C29.8159 17.2922 29.9833 17.1806 30.0948 17.069ZM29.6206 23.2894H32.8285C32.8285 22.2573 32.6053 21.281 32.1869 20.2768C31.7964 19.3005 31.2385 18.4916 30.5411 17.7943V17.7664C30.4017 17.9895 30.2064 18.1848 30.0112 18.3243C29.788 18.4637 29.5927 18.5753 29.3696 18.6869C29.2301 18.7706 29.0907 18.8821 28.9512 18.9379C28.8117 19.0216 28.6165 19.0774 28.477 19.1611C28.5886 19.3842 28.7001 19.6353 28.8117 19.8584C28.8954 20.1095 29.0349 20.3884 29.0907 20.6395C29.258 21.0858 29.3696 21.56 29.4812 22.0342C29.5649 22.4526 29.6206 22.8989 29.6206 23.2894ZM19.523 19.1611V19.1332C19.2999 19.0216 19.0488 18.9379 18.8536 18.8263C18.6583 18.6869 18.463 18.5474 18.2957 18.4358C18.1283 18.3521 17.9609 18.2406 17.8215 18.129C17.682 18.0174 17.5704 17.9058 17.4589 17.7943C16.7336 18.4916 16.2036 19.2726 15.8689 20.1932C15.5063 21.1137 15.2552 22.1457 15.1437 23.2615H18.5746C18.5746 22.4805 18.6862 21.7273 18.8815 20.9742C19.0488 20.1932 19.2999 19.6074 19.523 19.1611ZM23.4003 23.2615V20.0537C23.1771 20.0816 22.8982 20.0816 22.6471 20.0537C22.3682 20.0258 22.0893 19.9421 21.8382 19.8584C21.6151 19.8026 21.3361 19.7468 21.113 19.6632C20.8619 19.6074 20.6109 19.4958 20.4156 19.3842C20.2483 19.6632 20.1088 19.9979 19.9972 20.3605C19.8577 20.6952 19.7741 21.0579 19.6904 21.3926C19.6346 21.7273 19.6067 22.0899 19.5788 22.3968C19.5509 22.7036 19.523 23.0104 19.523 23.2615H23.4003ZM24.5718 20.1095V23.2615H28.7001C28.7001 23.0941 28.7001 22.8989 28.6722 22.6757C28.6165 22.4805 28.5886 22.2294 28.5607 22.0063C28.477 21.6715 28.3933 21.3089 28.2817 20.9742C28.1702 20.6674 28.0586 20.3605 27.9191 20.1095C27.8633 19.97 27.8075 19.8026 27.7517 19.6911C27.6681 19.5516 27.5844 19.4679 27.5286 19.3842C27.2218 19.6074 26.8033 19.7468 26.3013 19.8584C25.8271 19.97 25.2692 20.0816 24.7671 20.1095H24.5718ZM18.5746 24.182H15.1437C15.1437 24.6562 15.2273 25.1862 15.3668 25.8277C15.5063 26.4972 15.7852 27.1109 16.0921 27.7803C16.2315 28.1151 16.3989 28.4498 16.5662 28.7845C16.7615 29.0913 16.9847 29.4261 17.2078 29.7329C17.3752 29.6213 17.5425 29.5377 17.682 29.454C17.8494 29.3703 18.0446 29.2587 18.212 29.175C18.4073 29.0913 18.6025 29.0077 18.8257 28.8961C19.0209 28.8124 19.272 28.7008 19.523 28.5893C19.2999 27.8919 19.0488 27.2224 18.8815 26.4693C18.6862 25.7441 18.5746 25.0188 18.5746 24.2099V24.182ZM23.4003 27.4456V24.182H19.523C19.523 24.4052 19.5509 24.7399 19.6067 25.0746C19.6346 25.4093 19.7183 25.772 19.7741 26.1346C19.8856 26.5251 19.9693 26.9156 20.0809 27.2503C20.1925 27.5851 20.304 27.864 20.4156 28.1151C20.9177 27.9198 21.4198 27.7803 21.7545 27.6966C22.1172 27.5851 22.4519 27.5014 22.7866 27.4735H23.0934C23.205 27.4456 23.3166 27.4456 23.4003 27.4456ZM24.5718 24.182V27.4177C24.7671 27.4456 24.9902 27.4735 25.2134 27.5014C25.4644 27.5293 25.7713 27.5851 26.0223 27.6409L26.4407 27.7245C26.5802 27.7803 26.7476 27.8082 26.887 27.8361C27.0544 27.8919 27.2218 27.9198 27.3891 27.9756C27.5286 28.0314 27.6681 28.0593 27.7796 28.1151C28.1423 27.1946 28.3654 26.4414 28.5049 25.7999C28.6444 25.1862 28.7001 24.6562 28.7001 24.2099V24.182H24.5718ZM32.8285 24.2099V24.182H29.6206V24.3494C29.5927 24.8793 29.5091 25.493 29.3975 26.1346C29.2859 26.7483 29.0349 27.4735 28.7001 28.3661C29.1464 28.5893 29.5649 28.8124 29.8996 29.0356C30.2343 29.2587 30.5411 29.5098 30.7643 29.7329C31.2385 29.2587 31.6569 28.6172 32.0195 27.7803C32.3821 26.9714 32.6332 26.1346 32.7727 25.242C32.8006 25.0746 32.8006 24.9072 32.8285 24.7399V24.2099ZM23.4003 32.6897V28.3382C22.7029 28.4498 22.1172 28.5893 21.6709 28.7008C21.2245 28.8124 20.8898 28.924 20.6667 29.0356C20.834 29.454 21.0014 29.8166 21.1688 30.1513C21.3361 30.4582 21.5314 30.7929 21.6987 31.0718C21.7545 31.1834 21.8661 31.295 21.9498 31.4344C22.0335 31.546 22.0893 31.6855 22.1729 31.7971C22.2566 31.9365 22.3403 32.1039 22.424 32.2713C22.5356 32.4107 22.6192 32.5781 22.7308 32.6897H23.4003ZM24.5718 32.6897H25.2134C25.4644 32.4944 25.7155 32.2155 25.9107 31.9086C26.1339 31.6018 26.3849 31.2392 26.5523 30.9324C26.7476 30.5697 26.9428 30.235 27.1102 29.9003C27.2775 29.5655 27.417 29.2587 27.5286 29.0356C27.2218 28.924 26.8033 28.8124 26.3849 28.7008C25.9665 28.5893 25.3808 28.4777 24.5718 28.3661V32.6897ZM30.0948 30.4024V30.3745C30.0391 30.2908 29.9275 30.1792 29.8438 30.0955C29.7601 30.0119 29.6206 29.9003 29.4812 29.8166C29.3696 29.7329 29.2301 29.6492 29.0628 29.5655C28.8954 29.4819 28.6722 29.3703 28.477 29.2587C28.3654 29.4819 28.1702 29.8724 27.8912 30.4024C27.6402 30.9324 27.1939 31.5739 26.636 32.2713C27.3333 32.1597 27.947 31.9086 28.5049 31.5739C29.1185 31.2671 29.6485 30.8487 30.0948 30.4024ZM19.7183 29.5098V29.4819C19.523 29.5934 19.2162 29.7329 18.9093 29.8724C18.5746 30.0119 18.212 30.1792 17.8773 30.4024C18.0725 30.5697 18.2678 30.7371 18.4351 30.8487C18.6025 30.9881 18.7978 31.0997 18.9651 31.2113C19.272 31.4066 19.6346 31.6018 19.9972 31.7692C20.3598 31.9365 20.8061 32.1039 21.364 32.2713C21.1688 32.0481 21.0293 31.7692 20.8898 31.546C20.7503 31.3229 20.583 31.0997 20.4435 30.8766C20.304 30.6534 20.1925 30.4024 20.0809 30.1792C19.9414 29.9561 19.8298 29.7329 19.7183 29.5098Z" fill="#F5F5F5"/>
</svg>
